:SAMPLES-PER-SECOND 30
:FRAME-RANGE 1-1086
:FULLY-SPECIFIED
:DEGREES
781
root  78.5442 38.2177 -99.371 -169.314 -59.6054 167.006
RightUpLeg  -22.5659 0.685082 -14.2078
RightLeg  66.0776 -0.119561 -0.937917
RightFoot  -6.05625 -0.321588 6.06783
RightToes  1.21801e-010 1.2921e-014 -6.02303e-014
Spine  -4.99768 0.659888 -2.43143
Spine1  6.3486 0.965857 -3.28197
HEad  27.895 66.4727 10.6463
LeftShoulder1  -0.339373 4.60974 -19.6716
LeftArm  0.486822 11.2858 -51.8106
LeftForeArm  8.51485 -63.995 -23.1914
LeftHand  0.00974612 4.27902 -3.67051
RightShoulder  1.28995 1.21946 22.2278
RightArm  1.78921 -9.25223 31.2172
RightForeArm  26.1112 72.7608 37.3092
RightHand  -0.0466908 -9.35817 -0.128559
LeftUpLeg  -16.3897 -9.50955 -14.4864
LeftLeg  21.7975 14.8229 7.28338
LeftFoot  -5.71764 -0.262796 6.0471
LeftToes  3.79492e-011 -8.60219e-011 1.56273e-011
782
root  77.6149 38.2902 -99.9631 -167.652 -62.1981 165.752
RightUpLeg  -25.0573 0.0164209 -14.3391
RightLeg  58.6428 -1.09205 -2.39811
RightFoot  -8.69394 -0.170712 4.82723
RightToes  1.21801e-010 1.2921e-014 -6.02303e-014
Spine  -5.59643 -0.0360649 -3.53722
Spine1  6.52887 0.236698 -2.32396
HEad  26.8991 66.2279 9.6909
LeftShoulder1  -0.189403 4.0344 -19.6108
LeftArm  -0.557826 11.0559 -52.1105
LeftForeArm  8.35282 -63.7705 -22.946
LeftHand  0.0106566 4.21481 -3.61583
RightShoulder  1.2933 1.25312 22.083
RightArm  0.685169 -8.24817 32.0746
RightForeArm  26.0806 72.3159 35.9099
RightHand  -0.0870356 -9.35239 0.998706
LeftUpLeg  -14.9341 -10.3061 -14.9481
LeftLeg  22.1993 12.92 6.68417
LeftFoot  -7.4383 -0.15474 5.85197
LeftToes  3.79492e-011 -8.60219e-011 1.56273e-011
783
root  76.6598 38.4781 -100.497 -168.053 -64.9086 166.518
RightUpLeg  -25.6542 0.112138 -13.6914
RightLeg  47.4236 -3.3705 -4.24492
RightFoot  -8.09129 -0.220046 5.81083
RightToes  1.21801e-010 1.2921e-014 -6.02303e-014
Spine  -6.07391 -0.549925 -2.57453
Spine1  6.84389 -0.273828 -1.65605
HEad  24.6471 65.8115 7.70467
LeftShoulder1  -0.0677563 3.56554 -19.5662
LeftArm  -1.21351 10.2966 -52.2087
LeftForeArm  7.84622 -63.3621 -22.5367
LeftHand  0.0142174 4.02489 -3.68179
RightShoulder  1.29382 1.29725 21.8062
RightArm  0.807035 -6.56181 32.6354
RightForeArm  24.324 71.8628 34.9649
RightHand  -0.0661789 -9.74432 0.324445
LeftUpLeg  -12.5824 -11.0533 -14.448
LeftLeg  21.3565 12.0274 6.02387
LeftFoot  -8.81215 -0.0800386 6.02501
LeftToes  3.79492e-011 -8.60219e-011 1.56273e-011
784
root  75.726 38.658 -101.014 -169.643 -67.279 168.155
RightUpLeg  -24.696 1.47419 -13.4444
RightLeg  34.0633 -5.79759 -4.44633
RightFoot  -4.61574 -0.495454 7.88349
RightToes  1.21801e-010 1.2921e-014 -6.02303e-014
Spine  -5.93868 -0.762088 -1.07127
Spine1  6.92037 -0.539265 -1.20602
HEad  23.3613 64.7423 6.29325
LeftShoulder1  0.0470729 3.1216 -19.5606
LeftArm  -1.69932 9.26981 -52.2061
LeftForeArm  6.61094 -62.6796 -21.9278
LeftHand  0.0116363 4.12069 -3.51877
RightShoulder  1.29632 1.35489 21.4938
RightArm  0.860224 -4.63882 33.3496
RightForeArm  22.448 71.1633 33.4643
RightHand  -0.0513149 -9.99979 -0.0851164
LeftUpLeg  -10.0591 -11.9964 -13.4767
LeftLeg  20.6747 11.0492 5.25988
LeftFoot  -10.0314 -0.0100845 6.16024
LeftToes  3.79492e-011 -8.60219e-011 1.56273e-011
785
root  74.7543 38.701 -101.607 -171.714 -68.809 169.762
RightUpLeg  -22.856 3.84082 -13.7285
RightLeg  20.9604 -4.79433 -2.23525
RightFoot  -2.65056 -0.673361 8.60726
RightToes  1.21801e-010 1.2921e-014 -6.02303e-014
Spine  -5.61624 -0.582808 0.408158
Spine1  7.15302 -0.296897 -1.52624
HEad  21.8143 63.2802 5.04411
LeftShoulder1  0.128336 2.80925 -19.6716
LeftArm  -2.54516 8.05485 -52.1782
LeftForeArm  5.79005 -62.0934 -21.405
LeftHand  0.0090081 4.15739 -3.25385
RightShoulder  1.36516 1.64552 21.2484
RightArm  0.795165 -2.7119 34.152
RightForeArm  20.5188 70.3538 31.8694
RightHand  -0.0367767 -10.4003 -0.450138
LeftUpLeg  -7.57189 -11.9083 -12.7474
LeftLeg  21.1907 10.1879 4.78109
LeftFoot  -11.9595 0.104693 6.05795
LeftToes  3.79492e-011 -8.60219e-011 1.56273e-011
786
root  73.7212 38.6127 -102.242 -173.875 -70.5199 170.816
RightUpLeg  -20.141 0.485739 -12.2245
RightLeg  10.4133 5.183 -1.02019
RightFoot  -4.3932 -0.618651 9.67423
RightToes  1.21801e-010 1.2921e-014 -6.02303e-014
Spine  -5.05813 -0.569813 1.67267
Spine1  7.36722 -0.133835 -2.3531
HEad  21.5001 61.9368 4.60492
LeftShoulder1  0.144501 2.75301 -19.9771
LeftArm  -3.32926 6.68253 -51.9598
LeftForeArm  4.83234 -61.557 -20.9698
LeftHand  0.00663643 4.30157 -3.23565
RightShoulder  1.40474 1.84126 20.9569
RightArm  1.10122 -0.359465 35.2066
RightForeArm  17.6948 69.1762 29.8498
RightHand  -0.0106479 -10.7991 -1.00042
LeftUpLeg  -4.73427 -12.4329 -12.4569
LeftLeg  22.6104 9.56813 4.69112
LeftFoot  -14.4107 0.250732 6.11653
LeftToes  3.79492e-011 -8.60219e-011 1.56273e-011
787
root  72.6411 38.4556 -102.934 -176.725 -72.0197 172.34
RightUpLeg  -17.9733 -4.30793 -9.98433
RightLeg  4.74508 15.6199 -1.32592
RightFoot  -7.89437 -0.362594 10.2355
RightToes  1.21801e-010 1.2921e-014 -6.02303e-014
Spine  -4.40335 -0.52928 3.07292
Spine1  7.14667 0.0972285 -3.48139
HEad  23.226 60.775 6.01937
LeftShoulder1  0.16829 2.66475 -20.0829
LeftArm  -4.252 6.10703 -51.7719
LeftForeArm  4.06209 -61.2652 -20.7667
LeftHand  0.00256737 4.37662 -2.83814
RightShoulder  1.46059 2.02087 21.1027
RightArm  1.85464 2.45884 36.1404
RightForeArm  14.738 67.383 27.0906
RightHand  0.00335051 -10.8998 -1.27645
LeftUpLeg  -1.68808 -12.3206 -12.0465
LeftLeg  24.3302 8.63087 4.58977
LeftFoot  -17.0966 0.404392 5.9936
LeftToes  3.79492e-011 -8.60219e-011 1.56273e-011
788
root  71.5583 38.1939 -103.612 -177.394 -73.381 172.431
RightUpLeg  -17.6277 -3.98575 -9.84455
RightLeg  5.86009 16.8187 -0.491635
RightFoot  -9.87771 -0.243451 13.7191
RightToes  1.21801e-010 1.2921e-014 -6.02303e-014
Spine  -4.75024 -0.286522 3.52875
Spine1  6.98248 0.312261 -3.60994
HEad  25.8765 59.7286 7.55733
LeftShoulder1  0.243082 2.40161 -20.7355
LeftArm  -5.69141 6.14617 -51.5366
LeftForeArm  3.73591 -60.7626 -20.3242
LeftHand  0.0049926 4.24579 -2.98895
RightShoulder  1.47764 2.10208 21.0023
RightArm  2.72061 5.2655 37.2345
RightForeArm  11.7474 65.2027 24.3167
RightHand  0.0183572 -10.7976 -1.59737
LeftUpLeg  0.136299 -12.5747 -11.9549
LeftLeg  26.6603 7.87646 4.6308
LeftFoot  -19.9207 0.50671 5.15476
LeftToes  3.79492e-011 -8.60219e-011 1.56273e-011
